<svg xmlns="http://www.w3.org/2000/svg" xmlns:xlink="http://www.w3.org/1999/xlink" width="500" zoomAndPan="magnify" viewBox="0 0 375 374.999991" height="500" preserveAspectRatio="xMidYMid meet" version="1.0"><defs><filter x="0%" y="0%" width="100%" height="100%" id="ee47eeccbf"><feColorMatrix values="0 0 0 0 1 0 0 0 0 1 0 0 0 0 1 0 0 0 1 0" color-interpolation-filters="sRGB"/></filter><g/><clipPath id="62d0f01ec2"><path d="M 6.175781 12.351562 L 368.824219 12.351562 L 368.824219 375 L 6.175781 375 Z M 6.175781 12.351562 " clip-rule="nonzero"/></clipPath><clipPath id="441f93d531"><path d="M 187.5 12.351562 C 87.355469 12.351562 6.175781 93.53125 6.175781 193.675781 C 6.175781 293.816406 87.355469 375 187.5 375 C 287.644531 375 368.824219 293.816406 368.824219 193.675781 C 368.824219 93.53125 287.644531 12.351562 187.5 12.351562 Z M 187.5 12.351562 " clip-rule="nonzero"/></clipPath><clipPath id="72bf98ba6b"><path d="M 6.175781 12.351562 L 368.824219 12.351562 L 368.824219 375 L 6.175781 375 Z M 6.175781 12.351562 " clip-rule="nonzero"/></clipPath><clipPath id="ea74e1fe55"><path d="M 187.5 12.351562 C 87.355469 12.351562 6.175781 93.53125 6.175781 193.675781 C 6.175781 293.816406 87.355469 375 187.5 375 C 287.640625 375 368.824219 293.816406 368.824219 193.675781 C 368.824219 93.53125 287.640625 12.351562 187.5 12.351562 Z M 187.5 12.351562 " clip-rule="nonzero"/></clipPath><mask id="5fc0f4da5f"><g filter="url(#ee47eeccbf)"><rect x="-37.5" width="450" fill="#000000" y="-37.499999" height="449.999989" fill-opacity="0.28"/></g></mask><clipPath id="b81428bedf"><path d="M 0.886719 0.601562 L 129.71875 0.601562 L 129.71875 109.800781 L 0.886719 109.800781 Z M 0.886719 0.601562 " clip-rule="nonzero"/></clipPath><clipPath id="4c49016577"><rect x="0" width="130" y="0" height="110"/></clipPath><clipPath id="5a30b6bed0"><path d="M 228.316406 252.238281 L 292.066406 252.238281 L 292.066406 315.988281 L 228.316406 315.988281 Z M 228.316406 252.238281 " clip-rule="nonzero"/></clipPath></defs><rect x="-37.5" width="450" fill="#ffffff" y="-37.499999" height="449.999989" fill-opacity="1"/><rect x="-37.5" width="450" fill="#191414" y="-37.499999" height="449.999989" fill-opacity="1"/><g clip-path="url(#62d0f01ec2)"><g clip-path="url(#441f93d531)"><path fill="#1db954" d="M 6.175781 12.351562 L 368.824219 12.351562 L 368.824219 375 L 6.175781 375 Z M 6.175781 12.351562 " fill-opacity="1" fill-rule="nonzero"/></g></g><g clip-path="url(#72bf98ba6b)"><g clip-path="url(#ea74e1fe55)"><path stroke-linecap="butt" transform="matrix(0.75, 0, 0, 0.75, 6.175068, 12.350128)" fill="none" stroke-linejoin="miter" d="M 241.766591 0.00191268 C 108.240541 0.00191268 0.000950341 108.241503 0.000950341 241.767554 C 0.000950341 375.288396 108.240541 483.533194 241.766591 483.533194 C 375.287433 483.533194 483.532232 375.288396 483.532232 241.767554 C 483.532232 108.241503 375.287433 0.00191268 241.766591 0.00191268 Z M 241.766591 0.00191268 " stroke="#9c958a" stroke-width="2" stroke-opacity="1" stroke-miterlimit="4"/></g></g><g mask="url(#5fc0f4da5f)"><g transform="matrix(1, 0, 0, 1, 195, 183)"><g clip-path="url(#4c49016577)"><g clip-path="url(#b81428bedf)"><path fill="#fffffe" d="M 110.6875 19.742188 C 109.570312 18.628906 108.414062 17.554688 107.21875 16.523438 C 106.023438 15.492188 104.792969 14.507812 103.527344 13.566406 C 102.257812 12.628906 100.957031 11.734375 99.625 10.890625 C 98.292969 10.046875 96.929688 9.253906 95.539062 8.507812 C 94.148438 7.765625 92.730469 7.074219 91.285156 6.433594 C 89.84375 5.792969 88.378906 5.207031 86.894531 4.675781 C 85.410156 4.144531 83.90625 3.667969 82.382812 3.25 C 80.863281 2.828125 79.328125 2.464844 77.78125 2.15625 C 76.234375 1.847656 74.675781 1.597656 73.109375 1.402344 C 71.546875 1.210938 69.972656 1.074219 68.398438 0.996094 C 66.820312 0.921875 65.246094 0.902344 63.667969 0.941406 C 62.089844 0.980469 60.515625 1.074219 58.945312 1.230469 C 57.375 1.382812 55.8125 1.597656 54.257812 1.867188 C 52.703125 2.136719 51.160156 2.464844 49.628906 2.847656 C 48.097656 3.230469 46.585938 3.667969 45.085938 4.164062 C 43.585938 4.660156 42.109375 5.207031 40.652344 5.8125 C 39.195312 6.417969 37.761719 7.074219 36.351562 7.78125 C 34.941406 8.492188 33.558594 9.253906 32.207031 10.0625 C 30.851562 10.875 29.53125 11.734375 28.242188 12.644531 C 26.949219 13.550781 25.695312 14.507812 24.476562 15.507812 C 23.257812 16.507812 22.074219 17.554688 20.933594 18.640625 C 19.789062 19.730469 18.6875 20.859375 17.628906 22.027344 C 16.566406 23.195312 15.554688 24.402344 14.582031 25.648438 C 13.613281 26.890625 12.6875 28.167969 11.8125 29.480469 C 10.933594 30.792969 10.105469 32.136719 9.328125 33.507812 C 8.550781 34.882812 7.824219 36.28125 7.152344 37.707031 C 6.476562 39.132812 5.855469 40.585938 5.285156 42.054688 C 4.71875 43.527344 4.207031 45.019531 3.746094 46.53125 C 3.289062 48.039062 2.886719 49.566406 2.542969 51.105469 C 2.195312 52.644531 1.90625 54.195312 1.675781 55.753906 C 1.445312 57.316406 1.269531 58.882812 1.15625 60.457031 C 1.039062 62.03125 0.980469 63.605469 0.980469 65.183594 L 0.980469 89.175781 C 0.980469 89.644531 1.027344 90.105469 1.117188 90.5625 C 1.210938 91.019531 1.34375 91.464844 1.523438 91.898438 C 1.703125 92.328125 1.921875 92.738281 2.179688 93.125 C 2.441406 93.511719 2.734375 93.871094 3.066406 94.203125 C 3.394531 94.53125 3.753906 94.828125 4.140625 95.085938 C 4.53125 95.34375 4.9375 95.5625 5.371094 95.742188 C 5.800781 95.921875 6.246094 96.058594 6.703125 96.148438 C 7.160156 96.238281 7.621094 96.285156 8.089844 96.285156 L 10.203125 96.285156 C 12.542969 104.050781 21.792969 109.648438 29.894531 109.648438 L 36.34375 109.648438 C 36.714844 109.648438 37.082031 109.613281 37.449219 109.539062 C 37.8125 109.46875 38.167969 109.359375 38.511719 109.214844 C 38.855469 109.074219 39.183594 108.898438 39.492188 108.691406 C 39.800781 108.484375 40.089844 108.25 40.351562 107.988281 C 40.613281 107.722656 40.851562 107.4375 41.058594 107.128906 C 41.265625 106.816406 41.4375 106.492188 41.582031 106.148438 C 41.722656 105.804688 41.832031 105.449219 41.90625 105.082031 C 41.976562 104.71875 42.015625 104.351562 42.015625 103.976562 L 42.015625 60.214844 C 42.015625 59.84375 41.976562 59.472656 41.90625 59.109375 C 41.832031 58.742188 41.722656 58.386719 41.582031 58.042969 C 41.4375 57.699219 41.265625 57.375 41.058594 57.0625 C 40.851562 56.753906 40.613281 56.46875 40.351562 56.203125 C 40.089844 55.941406 39.800781 55.707031 39.492188 55.5 C 39.183594 55.292969 38.855469 55.117188 38.511719 54.976562 C 38.167969 54.832031 37.8125 54.726562 37.449219 54.652344 C 37.082031 54.578125 36.714844 54.542969 36.34375 54.542969 L 29.90625 54.542969 C 24.488281 54.542969 18.558594 57.039062 14.523438 61.019531 C 15.753906 36.355469 38.035156 16.640625 65.246094 16.640625 C 92.453125 16.640625 114.734375 36.363281 115.96875 61.019531 C 111.929688 57.046875 106 54.542969 100.582031 54.542969 L 94.148438 54.542969 C 93.773438 54.542969 93.40625 54.578125 93.039062 54.652344 C 92.675781 54.726562 92.320312 54.832031 91.976562 54.976562 C 91.632812 55.117188 91.304688 55.292969 90.996094 55.5 C 90.6875 55.707031 90.402344 55.941406 90.136719 56.203125 C 89.875 56.46875 89.640625 56.753906 89.433594 57.0625 C 89.226562 57.375 89.050781 57.699219 88.90625 58.042969 C 88.765625 58.386719 88.65625 58.742188 88.585938 59.109375 C 88.511719 59.472656 88.476562 59.84375 88.472656 60.214844 L 88.472656 103.976562 C 88.476562 104.351562 88.511719 104.71875 88.585938 105.082031 C 88.65625 105.449219 88.765625 105.804688 88.90625 106.148438 C 89.050781 106.492188 89.226562 106.816406 89.433594 107.128906 C 89.640625 107.4375 89.875 107.722656 90.136719 107.988281 C 90.402344 108.25 90.6875 108.484375 90.996094 108.691406 C 91.304688 108.898438 91.632812 109.074219 91.976562 109.214844 C 92.320312 109.359375 92.675781 109.46875 93.039062 109.539062 C 93.40625 109.613281 93.773438 109.648438 94.148438 109.648438 L 100.582031 109.648438 C 108.691406 109.648438 117.941406 104.042969 120.273438 96.285156 L 122.386719 96.285156 C 122.855469 96.285156 123.316406 96.238281 123.773438 96.148438 C 124.230469 96.058594 124.675781 95.921875 125.109375 95.742188 C 125.539062 95.5625 125.949219 95.34375 126.335938 95.085938 C 126.722656 94.828125 127.082031 94.53125 127.414062 94.203125 C 127.742188 93.871094 128.039062 93.511719 128.296875 93.125 C 128.554688 92.738281 128.773438 92.328125 128.953125 91.898438 C 129.132812 91.464844 129.269531 91.019531 129.359375 90.5625 C 129.449219 90.105469 129.496094 89.644531 129.496094 89.175781 L 129.496094 65.183594 C 129.507812 60.964844 129.105469 56.78125 128.289062 52.640625 C 127.472656 48.5 126.257812 44.480469 124.644531 40.578125 C 123.027344 36.679688 121.046875 32.976562 118.699219 29.46875 C 116.347656 25.960938 113.679688 22.71875 110.6875 19.742188 Z M 5.804688 89.175781 L 5.804688 75.015625 C 5.804688 74.710938 5.863281 74.417969 5.980469 74.140625 C 6.09375 73.859375 6.261719 73.613281 6.476562 73.398438 C 6.691406 73.183594 6.9375 73.019531 7.21875 72.902344 C 7.496094 72.785156 7.789062 72.726562 8.09375 72.726562 L 9.644531 72.726562 L 9.644531 91.460938 L 8.09375 91.460938 C 7.789062 91.460938 7.496094 91.402344 7.21875 91.289062 C 6.9375 91.171875 6.691406 91.007812 6.476562 90.792969 C 6.261719 90.578125 6.097656 90.332031 5.980469 90.050781 C 5.863281 89.773438 5.804688 89.480469 5.804688 89.175781 Z M 37.195312 60.214844 L 37.195312 103.976562 C 37.195312 104.214844 37.109375 104.414062 36.945312 104.578125 C 36.777344 104.746094 36.578125 104.828125 36.34375 104.828125 L 32.316406 104.828125 L 32.316406 59.363281 L 36.34375 59.363281 C 36.578125 59.363281 36.777344 59.445312 36.945312 59.613281 C 37.109375 59.777344 37.195312 59.980469 37.195312 60.214844 Z M 27.484375 59.578125 L 27.484375 104.617188 C 21.128906 103.527344 14.449219 98.398438 14.449219 92.527344 L 14.449219 71.664062 C 14.464844 65.792969 21.144531 60.664062 27.496094 59.578125 Z M 104.488281 26.789062 C 93.992188 17.132812 80.054688 11.808594 65.246094 11.808594 C 50.433594 11.808594 36.492188 17.128906 26.003906 26.789062 C 15.460938 36.496094 9.636719 49.417969 9.636719 63.175781 L 9.636719 67.910156 L 8.085938 67.910156 C 7.300781 67.910156 6.539062 68.035156 5.796875 68.289062 L 5.796875 65.183594 C 5.796875 32.40625 32.460938 5.746094 65.234375 5.746094 C 98.011719 5.746094 124.675781 32.410156 124.675781 65.183594 L 124.675781 68.289062 C 123.933594 68.035156 123.171875 67.910156 122.386719 67.910156 L 120.835938 67.910156 L 120.835938 63.175781 C 120.847656 49.417969 115.035156 36.496094 104.488281 26.789062 Z M 93.296875 103.976562 L 93.296875 60.214844 C 93.296875 59.980469 93.378906 59.777344 93.542969 59.613281 C 93.710938 59.445312 93.910156 59.363281 94.148438 59.363281 L 98.171875 59.363281 L 98.171875 104.828125 L 94.148438 104.828125 C 93.910156 104.828125 93.710938 104.746094 93.542969 104.578125 C 93.378906 104.414062 93.296875 104.214844 93.296875 103.976562 Z M 103.003906 104.617188 L 103.003906 59.578125 C 109.359375 60.664062 116.039062 65.792969 116.039062 71.664062 L 116.039062 92.527344 C 116.027344 98.398438 109.347656 103.527344 102.992188 104.617188 Z M 124.695312 89.175781 C 124.695312 89.476562 124.636719 89.769531 124.519531 90.050781 C 124.40625 90.328125 124.238281 90.578125 124.023438 90.792969 C 123.808594 91.007812 123.5625 91.171875 123.28125 91.289062 C 123.003906 91.402344 122.710938 91.460938 122.40625 91.460938 L 120.855469 91.460938 L 120.855469 72.730469 L 122.40625 72.730469 C 122.710938 72.730469 123.003906 72.789062 123.28125 72.902344 C 123.5625 73.019531 123.808594 73.1875 124.023438 73.398438 C 124.238281 73.613281 124.40625 73.863281 124.519531 74.140625 C 124.636719 74.421875 124.695312 74.714844 124.695312 75.015625 Z M 124.695312 89.175781 " fill-opacity="1" fill-rule="nonzero"/></g></g></g></g><path fill="#040606" d="M 260.191406 262.863281 C 269.039062 262.863281 270.816406 265.074219 270.816406 268.648438 C 270.816406 273.074219 266.050781 276.675781 260.191406 276.675781 C 254.332031 276.675781 249.566406 273.074219 249.566406 268.648438 C 249.566406 265.074219 251.34375 262.863281 260.191406 262.863281 Z M 260.191406 278.800781 C 267.222656 278.800781 272.941406 274.246094 272.941406 268.648438 C 272.941406 261.679688 266.496094 260.738281 260.191406 260.738281 C 253.886719 260.738281 247.441406 261.679688 247.441406 268.648438 C 247.441406 274.246094 253.160156 278.800781 260.191406 278.800781 " fill-opacity="1" fill-rule="nonzero"/><path fill="#040606" d="M 254.878906 267.113281 C 255.441406 267.113281 255.941406 267.859375 255.941406 268.707031 C 255.941406 269.554688 255.441406 270.300781 254.878906 270.300781 C 254.3125 270.300781 253.816406 269.554688 253.816406 268.707031 C 253.816406 267.859375 254.3125 267.113281 254.878906 267.113281 Z M 254.878906 272.425781 C 256.636719 272.425781 258.066406 270.757812 258.066406 268.707031 C 258.066406 266.65625 256.636719 264.988281 254.878906 264.988281 C 253.117188 264.988281 251.691406 266.65625 251.691406 268.707031 C 251.691406 270.757812 253.117188 272.425781 254.878906 272.425781 " fill-opacity="1" fill-rule="nonzero"/><path fill="#040606" d="M 265.503906 267.113281 C 266.066406 267.113281 266.566406 267.859375 266.566406 268.707031 C 266.566406 269.554688 266.066406 270.300781 265.503906 270.300781 C 264.9375 270.300781 264.441406 269.554688 264.441406 268.707031 C 264.441406 267.859375 264.9375 267.113281 265.503906 267.113281 Z M 265.503906 272.425781 C 267.261719 272.425781 268.691406 270.757812 268.691406 268.707031 C 268.691406 266.65625 267.261719 264.988281 265.503906 264.988281 C 263.742188 264.988281 262.316406 266.65625 262.316406 268.707031 C 262.316406 270.757812 263.742188 272.425781 265.503906 272.425781 " fill-opacity="1" fill-rule="nonzero"/><g clip-path="url(#5a30b6bed0)"><path fill="#040606" d="M 289.941406 308.550781 C 289.941406 309.136719 289.464844 309.613281 288.878906 309.613281 L 267.617188 309.613281 C 265.726562 309.613281 263.964844 310.632812 262.902344 312.347656 C 262.316406 313.296875 261.304688 313.863281 260.191406 313.863281 C 259.078125 313.863281 258.066406 313.296875 257.480469 312.347656 C 256.417969 310.632812 254.652344 309.613281 252.765625 309.613281 L 231.503906 309.613281 C 230.917969 309.613281 230.441406 309.136719 230.441406 308.550781 L 230.441406 275.613281 C 230.441406 275.027344 230.917969 274.550781 231.503906 274.550781 L 232.566406 274.550781 L 232.566406 304.300781 C 232.566406 306.058594 233.992188 307.488281 235.753906 307.488281 L 254.878906 307.488281 C 256.945312 307.488281 258.742188 308.917969 259.148438 310.890625 C 259.253906 311.382812 259.6875 311.738281 260.191406 311.738281 C 260.691406 311.738281 261.128906 311.382812 261.230469 310.890625 C 261.640625 308.917969 263.4375 307.488281 265.503906 307.488281 L 284.628906 307.488281 C 286.386719 307.488281 287.816406 306.058594 287.816406 304.300781 L 287.816406 274.550781 L 288.878906 274.550781 C 289.464844 274.550781 289.941406 275.027344 289.941406 275.613281 Z M 234.691406 271.363281 C 234.691406 270.777344 235.167969 270.300781 235.753906 270.300781 L 243.191406 270.300781 C 243.191406 273.769531 244.613281 276.707031 247.113281 278.894531 C 246.84375 279.238281 246.601562 279.601562 246.390625 279.980469 C 246.042969 279.902344 245.679688 279.863281 245.316406 279.863281 C 242.386719 279.863281 240.003906 282.246094 240.003906 285.175781 L 240.003906 288.363281 L 238.941406 288.363281 C 238.355469 288.363281 237.878906 288.839844 237.878906 289.425781 C 237.878906 290.011719 238.355469 290.488281 238.941406 290.488281 L 259.128906 290.488281 L 259.128906 306.929688 C 257.976562 305.953125 256.484375 305.363281 254.878906 305.363281 L 235.753906 305.363281 C 235.167969 305.363281 234.691406 304.886719 234.691406 304.300781 Z M 246.910156 254.363281 C 247.789062 254.363281 248.503906 255.078125 248.503906 255.957031 L 248.503906 257.921875 C 247.1875 258.753906 246.125 259.796875 245.316406 261.074219 L 245.316406 255.957031 C 245.316406 255.078125 246.03125 254.363281 246.910156 254.363281 Z M 275.066406 270.300781 C 275.066406 275.203125 271.167969 280.925781 260.191406 280.925781 C 249.210938 280.925781 245.316406 275.203125 245.316406 270.300781 C 245.316406 261.007812 249.34375 257.550781 260.191406 257.550781 C 271.035156 257.550781 275.066406 261.007812 275.066406 270.300781 Z M 271.878906 255.957031 C 271.878906 255.078125 272.59375 254.363281 273.472656 254.363281 C 274.351562 254.363281 275.066406 255.078125 275.066406 255.957031 L 275.066406 261.074219 C 274.257812 259.796875 273.195312 258.753906 271.878906 257.921875 Z M 278.253906 288.363281 L 275.066406 288.363281 L 275.066406 284.113281 C 275.066406 283.394531 274.964844 282.691406 274.796875 282.011719 C 274.886719 282.007812 274.972656 281.988281 275.066406 281.988281 C 276.824219 281.988281 278.253906 283.414062 278.253906 285.175781 Z M 247.441406 284.113281 C 247.441406 282.660156 247.925781 281.285156 248.8125 280.164062 C 251.71875 282.003906 255.613281 283.050781 260.191406 283.050781 C 264.769531 283.050781 268.660156 282.003906 271.566406 280.164062 C 272.453125 281.285156 272.941406 282.660156 272.941406 284.113281 L 272.941406 288.363281 L 247.441406 288.363281 Z M 245.316406 284.113281 L 245.316406 288.363281 L 242.128906 288.363281 L 242.128906 285.175781 C 242.128906 283.414062 243.554688 281.988281 245.316406 281.988281 C 245.40625 281.988281 245.492188 282.007812 245.585938 282.011719 C 245.414062 282.691406 245.316406 283.394531 245.316406 284.113281 Z M 284.628906 270.300781 C 285.214844 270.300781 285.691406 270.777344 285.691406 271.363281 L 285.691406 304.300781 C 285.691406 304.886719 285.214844 305.363281 284.628906 305.363281 L 265.503906 305.363281 C 263.898438 305.363281 262.402344 305.953125 261.253906 306.929688 L 261.253906 290.488281 L 281.441406 290.488281 C 282.027344 290.488281 282.503906 290.011719 282.503906 289.425781 C 282.503906 288.839844 282.027344 288.363281 281.441406 288.363281 L 280.378906 288.363281 L 280.378906 285.175781 C 280.378906 282.246094 277.996094 279.863281 275.066406 279.863281 C 274.699219 279.863281 274.339844 279.902344 273.992188 279.980469 C 273.777344 279.601562 273.539062 279.238281 273.269531 278.894531 C 275.765625 276.707031 277.191406 273.769531 277.191406 270.300781 Z M 288.878906 272.425781 L 287.816406 272.425781 L 287.816406 271.363281 C 287.816406 269.601562 286.386719 268.175781 284.628906 268.175781 L 277.191406 268.175781 L 277.191406 255.957031 C 277.191406 253.90625 275.523438 252.238281 273.472656 252.238281 C 271.421875 252.238281 269.753906 253.90625 269.753906 255.957031 L 269.753906 256.859375 C 267.261719 255.890625 264.109375 255.425781 260.191406 255.425781 C 256.273438 255.425781 253.117188 255.890625 250.628906 256.859375 L 250.628906 255.957031 C 250.628906 253.90625 248.960938 252.238281 246.910156 252.238281 C 244.859375 252.238281 243.191406 253.90625 243.191406 255.957031 L 243.191406 268.175781 L 235.753906 268.175781 C 233.992188 268.175781 232.566406 269.601562 232.566406 271.363281 L 232.566406 272.425781 L 231.503906 272.425781 C 229.742188 272.425781 228.316406 273.851562 228.316406 275.613281 L 228.316406 308.550781 C 228.316406 310.308594 229.742188 311.738281 231.503906 311.738281 L 252.765625 311.738281 C 253.914062 311.738281 255 312.386719 255.671875 313.46875 C 256.644531 315.046875 258.339844 315.988281 260.191406 315.988281 C 262.042969 315.988281 263.734375 315.046875 264.710938 313.46875 C 265.382812 312.386719 266.464844 311.738281 267.617188 311.738281 L 288.878906 311.738281 C 290.636719 311.738281 292.066406 310.308594 292.066406 308.550781 L 292.066406 275.613281 C 292.066406 273.851562 290.636719 272.425781 288.878906 272.425781 " fill-opacity="1" fill-rule="nonzero"/></g><path fill="#040606" d="M 259.128906 274.550781 L 261.253906 274.550781 C 261.839844 274.550781 262.316406 274.074219 262.316406 273.488281 C 262.316406 272.902344 261.839844 272.425781 261.253906 272.425781 L 259.128906 272.425781 C 258.542969 272.425781 258.066406 272.902344 258.066406 273.488281 C 258.066406 274.074219 258.542969 274.550781 259.128906 274.550781 " fill-opacity="1" fill-rule="nonzero"/><path fill="#040606" d="M 238.941406 295.800781 L 254.878906 295.800781 C 255.464844 295.800781 255.941406 295.324219 255.941406 294.738281 C 255.941406 294.152344 255.464844 293.675781 254.878906 293.675781 L 238.941406 293.675781 C 238.355469 293.675781 237.878906 294.152344 237.878906 294.738281 C 237.878906 295.324219 238.355469 295.800781 238.941406 295.800781 " fill-opacity="1" fill-rule="nonzero"/><path fill="#040606" d="M 238.941406 301.113281 L 249.566406 301.113281 C 250.152344 301.113281 250.628906 300.636719 250.628906 300.050781 C 250.628906 299.464844 250.152344 298.988281 249.566406 298.988281 L 238.941406 298.988281 C 238.355469 298.988281 237.878906 299.464844 237.878906 300.050781 C 237.878906 300.636719 238.355469 301.113281 238.941406 301.113281 " fill-opacity="1" fill-rule="nonzero"/><path fill="#040606" d="M 281.441406 293.675781 L 265.503906 293.675781 C 264.917969 293.675781 264.441406 294.152344 264.441406 294.738281 C 264.441406 295.324219 264.917969 295.800781 265.503906 295.800781 L 281.441406 295.800781 C 282.027344 295.800781 282.503906 295.324219 282.503906 294.738281 C 282.503906 294.152344 282.027344 293.675781 281.441406 293.675781 " fill-opacity="1" fill-rule="nonzero"/><path fill="#040606" d="M 276.128906 298.988281 L 265.503906 298.988281 C 264.917969 298.988281 264.441406 299.464844 264.441406 300.050781 C 264.441406 300.636719 264.917969 301.113281 265.503906 301.113281 L 276.128906 301.113281 C 276.714844 301.113281 277.191406 300.636719 277.191406 300.050781 C 277.191406 299.464844 276.714844 298.988281 276.128906 298.988281 " fill-opacity="1" fill-rule="nonzero"/><g fill="#191414" fill-opacity="1"><g transform="translate(36.416018, 216.374986)"><g><path d="M 26.921875 0.8125 C 22.609375 0.8125 18.375 0.0703125 14.21875 -1.40625 C 10.070312 -2.894531 6.300781 -5.175781 2.90625 -8.25 L 10.265625 -17.0625 C 12.859375 -14.957031 15.515625 -13.285156 18.234375 -12.046875 C 20.953125 -10.804688 23.929688 -10.1875 27.171875 -10.1875 C 29.753906 -10.1875 31.757812 -10.65625 33.1875 -11.59375 C 34.613281 -12.539062 35.328125 -13.851562 35.328125 -15.53125 L 35.328125 -15.6875 C 35.328125 -16.5 35.179688 -17.210938 34.890625 -17.828125 C 34.597656 -18.453125 34.03125 -19.03125 33.1875 -19.5625 C 32.351562 -20.101562 31.195312 -20.644531 29.71875 -21.1875 C 28.238281 -21.726562 26.3125 -22.296875 23.9375 -22.890625 C 21.082031 -23.585938 18.492188 -24.363281 16.171875 -25.21875 C 13.847656 -26.082031 11.878906 -27.148438 10.265625 -28.421875 C 8.648438 -29.691406 7.394531 -31.269531 6.5 -33.15625 C 5.613281 -35.039062 5.171875 -37.382812 5.171875 -40.1875 L 5.171875 -40.34375 C 5.171875 -42.9375 5.65625 -45.269531 6.625 -47.34375 C 7.601562 -49.414062 8.96875 -51.207031 10.71875 -52.71875 C 12.46875 -54.226562 14.554688 -55.382812 16.984375 -56.1875 C 19.410156 -57 22.078125 -57.40625 24.984375 -57.40625 C 29.140625 -57.40625 32.953125 -56.785156 36.421875 -55.546875 C 39.898438 -54.304688 43.097656 -52.53125 46.015625 -50.21875 L 39.546875 -40.828125 C 37.003906 -42.554688 34.519531 -43.914062 32.09375 -44.90625 C 29.675781 -45.90625 27.253906 -46.40625 24.828125 -46.40625 C 22.398438 -46.40625 20.578125 -45.929688 19.359375 -44.984375 C 18.148438 -44.046875 17.546875 -42.878906 17.546875 -41.484375 L 17.546875 -41.3125 C 17.546875 -40.394531 17.71875 -39.597656 18.0625 -38.921875 C 18.414062 -38.253906 19.050781 -37.648438 19.96875 -37.109375 C 20.882812 -36.578125 22.140625 -36.066406 23.734375 -35.578125 C 25.328125 -35.085938 27.332031 -34.519531 29.75 -33.875 C 32.613281 -33.125 35.160156 -32.273438 37.390625 -31.328125 C 39.628906 -30.390625 41.515625 -29.257812 43.046875 -27.9375 C 44.585938 -26.613281 45.75 -25.0625 46.53125 -23.28125 C 47.3125 -21.507812 47.703125 -19.382812 47.703125 -16.90625 L 47.703125 -16.734375 C 47.703125 -13.929688 47.191406 -11.4375 46.171875 -9.25 C 45.148438 -7.070312 43.722656 -5.238281 41.890625 -3.75 C 40.054688 -2.269531 37.867188 -1.140625 35.328125 -0.359375 C 32.796875 0.421875 29.992188 0.8125 26.921875 0.8125 Z M 26.921875 0.8125 "/></g></g></g><g fill="#191414" fill-opacity="1"><g transform="translate(88.165968, 216.374986)"><g><path d="M 5.5 -43.34375 L 17.796875 -43.34375 L 17.796875 -37.109375 C 19.296875 -39.160156 21.109375 -40.847656 23.234375 -42.171875 C 25.367188 -43.492188 28.054688 -44.15625 31.296875 -44.15625 C 33.828125 -44.15625 36.273438 -43.664062 38.640625 -42.6875 C 41.015625 -41.71875 43.117188 -40.273438 44.953125 -38.359375 C 46.785156 -36.453125 48.253906 -34.109375 49.359375 -31.328125 C 50.460938 -28.554688 51.015625 -25.363281 51.015625 -21.75 L 51.015625 -21.59375 C 51.015625 -17.976562 50.460938 -14.78125 49.359375 -12 C 48.253906 -9.226562 46.800781 -6.882812 45 -4.96875 C 43.195312 -3.0625 41.109375 -1.617188 38.734375 -0.640625 C 36.359375 0.328125 33.878906 0.8125 31.296875 0.8125 C 28.003906 0.8125 25.289062 0.164062 23.15625 -1.125 C 21.03125 -2.425781 19.242188 -3.9375 17.796875 -5.65625 L 17.796875 12.9375 L 5.5 12.9375 Z M 28.140625 -9.625 C 29.597656 -9.625 30.957031 -9.90625 32.21875 -10.46875 C 33.488281 -11.039062 34.609375 -11.847656 35.578125 -12.890625 C 36.546875 -13.941406 37.3125 -15.195312 37.875 -16.65625 C 38.445312 -18.113281 38.734375 -19.757812 38.734375 -21.59375 L 38.734375 -21.75 C 38.734375 -23.53125 38.445312 -25.160156 37.875 -26.640625 C 37.3125 -28.117188 36.546875 -29.382812 35.578125 -30.4375 C 34.609375 -31.488281 33.488281 -32.296875 32.21875 -32.859375 C 30.957031 -33.429688 29.597656 -33.71875 28.140625 -33.71875 C 26.679688 -33.71875 25.316406 -33.429688 24.046875 -32.859375 C 22.785156 -32.296875 21.679688 -31.488281 20.734375 -30.4375 C 19.796875 -29.382812 19.039062 -28.117188 18.46875 -26.640625 C 17.90625 -25.160156 17.625 -23.53125 17.625 -21.75 L 17.625 -21.59375 C 17.625 -19.8125 17.90625 -18.175781 18.46875 -16.6875 C 19.039062 -15.207031 19.796875 -13.941406 20.734375 -12.890625 C 21.679688 -11.847656 22.785156 -11.039062 24.046875 -10.46875 C 25.316406 -9.90625 26.679688 -9.625 28.140625 -9.625 Z M 28.140625 -9.625 "/></g></g></g><g fill="#191414" fill-opacity="1"><g transform="translate(142.745997, 216.374986)"><g><path d="M 26.765625 0.96875 C 23.421875 0.96875 20.320312 0.390625 17.46875 -0.765625 C 14.613281 -1.921875 12.144531 -3.507812 10.0625 -5.53125 C 7.988281 -7.5625 6.359375 -9.9375 5.171875 -12.65625 C 3.984375 -15.375 3.390625 -18.296875 3.390625 -21.421875 L 3.390625 -21.59375 C 3.390625 -24.71875 3.984375 -27.640625 5.171875 -30.359375 C 6.359375 -33.085938 8.003906 -35.472656 10.109375 -37.515625 C 12.210938 -39.566406 14.691406 -41.1875 17.546875 -42.375 C 20.398438 -43.5625 23.523438 -44.15625 26.921875 -44.15625 C 30.265625 -44.15625 33.363281 -43.570312 36.21875 -42.40625 C 39.082031 -41.25 41.550781 -39.660156 43.625 -37.640625 C 45.695312 -35.617188 47.328125 -33.242188 48.515625 -30.515625 C 49.703125 -27.796875 50.296875 -24.875 50.296875 -21.75 L 50.296875 -21.59375 C 50.296875 -18.46875 49.703125 -15.539062 48.515625 -12.8125 C 47.328125 -10.09375 45.679688 -7.707031 43.578125 -5.65625 C 41.484375 -3.613281 39.003906 -2 36.140625 -0.8125 C 33.285156 0.375 30.160156 0.96875 26.765625 0.96875 Z M 26.921875 -9.625 C 28.703125 -9.625 30.28125 -9.929688 31.65625 -10.546875 C 33.03125 -11.171875 34.203125 -12.019531 35.171875 -13.09375 C 36.140625 -14.175781 36.878906 -15.429688 37.390625 -16.859375 C 37.910156 -18.285156 38.171875 -19.804688 38.171875 -21.421875 L 38.171875 -21.59375 C 38.171875 -23.207031 37.898438 -24.726562 37.359375 -26.15625 C 36.816406 -27.582031 36.03125 -28.847656 35 -29.953125 C 33.976562 -31.054688 32.765625 -31.929688 31.359375 -32.578125 C 29.960938 -33.234375 28.429688 -33.5625 26.765625 -33.5625 C 24.984375 -33.5625 23.40625 -33.25 22.03125 -32.625 C 20.65625 -32.007812 19.484375 -31.160156 18.515625 -30.078125 C 17.546875 -29.003906 16.804688 -27.75 16.296875 -26.3125 C 15.785156 -24.882812 15.53125 -23.363281 15.53125 -21.75 L 15.53125 -21.59375 C 15.53125 -19.96875 15.796875 -18.441406 16.328125 -17.015625 C 16.867188 -15.585938 17.648438 -14.320312 18.671875 -13.21875 C 19.703125 -12.113281 20.90625 -11.238281 22.28125 -10.59375 C 23.65625 -9.945312 25.203125 -9.625 26.921875 -9.625 Z M 26.921875 -9.625 "/></g></g></g><g fill="#191414" fill-opacity="1"><g transform="translate(196.436568, 216.374986)"><g><path d="M 20.140625 0.734375 C 18.242188 0.734375 16.523438 0.53125 14.984375 0.125 C 13.453125 -0.28125 12.132812 -0.992188 11.03125 -2.015625 C 9.925781 -3.046875 9.0625 -4.378906 8.4375 -6.015625 C 7.820312 -7.660156 7.515625 -9.753906 7.515625 -12.296875 L 7.515625 -32.828125 L 2.34375 -32.828125 L 2.34375 -43.34375 L 7.515625 -43.34375 L 7.515625 -54.421875 L 19.8125 -54.421875 L 19.8125 -43.34375 L 30 -43.34375 L 30 -32.828125 L 19.8125 -32.828125 L 19.8125 -14.3125 C 19.8125 -11.507812 21.128906 -10.109375 23.765625 -10.109375 C 25.921875 -10.109375 27.945312 -10.617188 29.84375 -11.640625 L 29.84375 -1.78125 C 28.539062 -1.019531 27.109375 -0.410156 25.546875 0.046875 C 23.984375 0.503906 22.179688 0.734375 20.140625 0.734375 Z M 20.140625 0.734375 "/></g></g></g><g fill="#191414" fill-opacity="1"><g transform="translate(229.993184, 216.374986)"><g><path d="M 5.734375 -59.03125 L 18.671875 -59.03125 L 18.671875 -48.109375 L 5.734375 -48.109375 Z M 6.0625 -43.34375 L 18.359375 -43.34375 L 18.359375 0 L 6.0625 0 Z M 6.0625 -43.34375 "/></g></g></g><g fill="#191414" fill-opacity="1"><g transform="translate(254.412677, 216.374986)"><g><path d="M 7.59375 -32.828125 L 2.5 -32.828125 L 2.5 -42.9375 L 7.59375 -42.9375 L 7.59375 -45.6875 C 7.59375 -50.375 8.753906 -53.878906 11.078125 -56.203125 C 13.335938 -58.460938 16.65625 -59.59375 21.03125 -59.59375 C 22.96875 -59.59375 24.625 -59.484375 26 -59.265625 C 27.375 -59.054688 28.625 -58.757812 29.75 -58.375 L 29.75 -48.1875 C 28.832031 -48.507812 27.941406 -48.765625 27.078125 -48.953125 C 26.222656 -49.148438 25.253906 -49.25 24.171875 -49.25 C 21.210938 -49.25 19.734375 -47.679688 19.734375 -44.546875 L 19.734375 -42.859375 L 29.671875 -42.859375 L 29.671875 -32.828125 L 19.890625 -32.828125 L 19.890625 0 L 7.59375 0 Z M 7.59375 -32.828125 "/></g></g></g><g fill="#191414" fill-opacity="1"><g transform="translate(285.300919, 216.374986)"><g><path d="M 33.96875 -43.34375 L 46.734375 -43.34375 L 30.078125 1.046875 C 29.265625 3.253906 28.398438 5.125 27.484375 6.65625 C 26.578125 8.195312 25.566406 9.453125 24.453125 10.421875 C 23.347656 11.398438 22.09375 12.101562 20.6875 12.53125 C 19.289062 12.96875 17.675781 13.1875 15.84375 13.1875 C 13.582031 13.1875 11.585938 12.914062 9.859375 12.375 C 8.140625 11.832031 6.5 11.101562 4.9375 10.1875 L 9.0625 1.296875 C 9.863281 1.773438 10.734375 2.175781 11.671875 2.5 C 12.617188 2.820312 13.5 2.984375 14.3125 2.984375 C 15.382812 2.984375 16.234375 2.78125 16.859375 2.375 C 17.484375 1.976562 18.0625 1.238281 18.59375 0.15625 L 1.625 -43.34375 L 14.640625 -43.34375 L 24.5 -13.828125 Z M 33.96875 -43.34375 "/></g></g></g><g fill="#ffffff" fill-opacity="1"><g transform="translate(45.058245, 133.941034)"><g><path d="M 5.109375 0.203125 C 3.953125 0.203125 2.984375 -0.0078125 2.203125 -0.4375 C 1.429688 -0.875 0.796875 -1.394531 0.296875 -2 L 2.328125 -4.265625 C 2.753906 -3.796875 3.175781 -3.429688 3.59375 -3.171875 C 4.019531 -2.921875 4.492188 -2.796875 5.015625 -2.796875 C 5.628906 -2.796875 6.113281 -2.988281 6.46875 -3.375 C 6.820312 -3.757812 7 -4.378906 7 -5.234375 L 7 -14.703125 L 10.3125 -14.703125 L 10.3125 -5.078125 C 10.3125 -4.203125 10.191406 -3.441406 9.953125 -2.796875 C 9.710938 -2.148438 9.367188 -1.601562 8.921875 -1.15625 C 8.472656 -0.707031 7.921875 -0.367188 7.265625 -0.140625 C 6.617188 0.0859375 5.898438 0.203125 5.109375 0.203125 Z M 5.109375 0.203125 "/></g></g></g><g fill="#ffffff" fill-opacity="1"><g transform="translate(58.372295, 133.941034)"><g><path d="M 4.625 0.203125 C 4.09375 0.203125 3.59375 0.128906 3.125 -0.015625 C 2.65625 -0.160156 2.242188 -0.378906 1.890625 -0.671875 C 1.535156 -0.960938 1.253906 -1.320312 1.046875 -1.75 C 0.847656 -2.175781 0.75 -2.671875 0.75 -3.234375 L 0.75 -3.28125 C 0.75 -3.894531 0.859375 -4.425781 1.078125 -4.875 C 1.304688 -5.320312 1.617188 -5.691406 2.015625 -5.984375 C 2.421875 -6.273438 2.898438 -6.492188 3.453125 -6.640625 C 4.003906 -6.785156 4.617188 -6.859375 5.296875 -6.859375 C 5.867188 -6.859375 6.367188 -6.816406 6.796875 -6.734375 C 7.222656 -6.648438 7.640625 -6.539062 8.046875 -6.40625 L 8.046875 -6.59375 C 8.046875 -7.269531 7.84375 -7.78125 7.4375 -8.125 C 7.03125 -8.476562 6.425781 -8.65625 5.625 -8.65625 C 5.007812 -8.65625 4.46875 -8.601562 4 -8.5 C 3.53125 -8.394531 3.035156 -8.242188 2.515625 -8.046875 L 1.71875 -10.484375 C 2.332031 -10.742188 2.972656 -10.957031 3.640625 -11.125 C 4.316406 -11.289062 5.132812 -11.375 6.09375 -11.375 C 6.96875 -11.375 7.71875 -11.265625 8.34375 -11.046875 C 8.96875 -10.835938 9.484375 -10.53125 9.890625 -10.125 C 10.304688 -9.695312 10.613281 -9.179688 10.8125 -8.578125 C 11.007812 -7.972656 11.109375 -7.289062 11.109375 -6.53125 L 11.109375 0 L 8.015625 0 L 8.015625 -1.21875 C 7.628906 -0.78125 7.160156 -0.429688 6.609375 -0.171875 C 6.066406 0.078125 5.40625 0.203125 4.625 0.203125 Z M 5.59375 -2 C 6.34375 -2 6.941406 -2.179688 7.390625 -2.546875 C 7.847656 -2.910156 8.078125 -3.382812 8.078125 -3.96875 L 8.078125 -4.53125 C 7.804688 -4.65625 7.5 -4.753906 7.15625 -4.828125 C 6.8125 -4.910156 6.441406 -4.953125 6.046875 -4.953125 C 5.359375 -4.953125 4.816406 -4.816406 4.421875 -4.546875 C 4.035156 -4.285156 3.84375 -3.90625 3.84375 -3.40625 L 3.84375 -3.359375 C 3.84375 -2.921875 4.003906 -2.582031 4.328125 -2.34375 C 4.648438 -2.113281 5.070312 -2 5.59375 -2 Z M 5.59375 -2 "/></g></g></g><g fill="#ffffff" fill-opacity="1"><g transform="translate(72.274342, 133.941034)"><g><path d="M 1.421875 -11.25 L 4.625 -11.25 L 4.625 -9.65625 C 4.800781 -9.894531 5 -10.125 5.21875 -10.34375 C 5.4375 -10.5625 5.675781 -10.753906 5.9375 -10.921875 C 6.207031 -11.085938 6.503906 -11.21875 6.828125 -11.3125 C 7.160156 -11.414062 7.53125 -11.46875 7.9375 -11.46875 C 8.675781 -11.46875 9.316406 -11.3125 9.859375 -11 C 10.398438 -10.695312 10.816406 -10.257812 11.109375 -9.6875 C 11.597656 -10.269531 12.144531 -10.710938 12.75 -11.015625 C 13.351562 -11.316406 14.039062 -11.46875 14.8125 -11.46875 C 16 -11.46875 16.925781 -11.113281 17.59375 -10.40625 C 18.269531 -9.707031 18.609375 -8.679688 18.609375 -7.328125 L 18.609375 0 L 15.40625 0 L 15.40625 -6.28125 C 15.40625 -7.03125 15.242188 -7.597656 14.921875 -7.984375 C 14.609375 -8.367188 14.148438 -8.5625 13.546875 -8.5625 C 12.941406 -8.5625 12.46875 -8.367188 12.125 -7.984375 C 11.78125 -7.597656 11.609375 -7.03125 11.609375 -6.28125 L 11.609375 0 L 8.421875 0 L 8.421875 -6.28125 C 8.421875 -7.03125 8.257812 -7.597656 7.9375 -7.984375 C 7.613281 -8.367188 7.148438 -8.5625 6.546875 -8.5625 C 5.953125 -8.5625 5.484375 -8.367188 5.140625 -7.984375 C 4.796875 -7.597656 4.625 -7.03125 4.625 -6.28125 L 4.625 0 L 1.421875 0 Z M 1.421875 -11.25 "/></g></g></g><g fill="#ffffff" fill-opacity="1"><g transform="translate(93.694425, 133.941034)"><g><path d="M 1.421875 -11.25 L 4.625 -11.25 L 4.625 -9.65625 C 4.800781 -9.894531 5 -10.125 5.21875 -10.34375 C 5.4375 -10.5625 5.675781 -10.753906 5.9375 -10.921875 C 6.207031 -11.085938 6.503906 -11.21875 6.828125 -11.3125 C 7.160156 -11.414062 7.53125 -11.46875 7.9375 -11.46875 C 8.675781 -11.46875 9.316406 -11.3125 9.859375 -11 C 10.398438 -10.695312 10.816406 -10.257812 11.109375 -9.6875 C 11.597656 -10.269531 12.144531 -10.710938 12.75 -11.015625 C 13.351562 -11.316406 14.039062 -11.46875 14.8125 -11.46875 C 16 -11.46875 16.925781 -11.113281 17.59375 -10.40625 C 18.269531 -9.707031 18.609375 -8.679688 18.609375 -7.328125 L 18.609375 0 L 15.40625 0 L 15.40625 -6.28125 C 15.40625 -7.03125 15.242188 -7.597656 14.921875 -7.984375 C 14.609375 -8.367188 14.148438 -8.5625 13.546875 -8.5625 C 12.941406 -8.5625 12.46875 -8.367188 12.125 -7.984375 C 11.78125 -7.597656 11.609375 -7.03125 11.609375 -6.28125 L 11.609375 0 L 8.421875 0 L 8.421875 -6.28125 C 8.421875 -7.03125 8.257812 -7.597656 7.9375 -7.984375 C 7.613281 -8.367188 7.148438 -8.5625 6.546875 -8.5625 C 5.953125 -8.5625 5.484375 -8.367188 5.140625 -7.984375 C 4.796875 -7.597656 4.625 -7.03125 4.625 -6.28125 L 4.625 0 L 1.421875 0 Z M 1.421875 -11.25 "/></g></g></g><g fill="#ffffff" fill-opacity="1"><g transform="translate(115.114507, 133.941034)"><g><path d="M 1.484375 -15.328125 L 4.84375 -15.328125 L 4.84375 -12.5 L 1.484375 -12.5 Z M 1.578125 -11.25 L 4.765625 -11.25 L 4.765625 0 L 1.578125 0 Z M 1.578125 -11.25 "/></g></g></g><g fill="#ffffff" fill-opacity="1"><g transform="translate(122.926536, 133.941034)"><g><path d="M 1.421875 -11.25 L 4.625 -11.25 L 4.625 -9.65625 C 4.800781 -9.894531 5 -10.125 5.21875 -10.34375 C 5.4375 -10.5625 5.675781 -10.753906 5.9375 -10.921875 C 6.207031 -11.085938 6.503906 -11.21875 6.828125 -11.3125 C 7.148438 -11.414062 7.515625 -11.46875 7.921875 -11.46875 C 9.140625 -11.46875 10.078125 -11.09375 10.734375 -10.34375 C 11.398438 -9.601562 11.734375 -8.582031 11.734375 -7.28125 L 11.734375 0 L 8.546875 0 L 8.546875 -6.28125 C 8.546875 -7.03125 8.375 -7.597656 8.03125 -7.984375 C 7.695312 -8.367188 7.222656 -8.5625 6.609375 -8.5625 C 5.992188 -8.5625 5.507812 -8.367188 5.15625 -7.984375 C 4.800781 -7.597656 4.625 -7.03125 4.625 -6.28125 L 4.625 0 L 1.421875 0 Z M 1.421875 -11.25 "/></g></g></g><g fill="#ffffff" fill-opacity="1"><g transform="translate(137.479592, 133.941034)"><g><path d="M 0.65625 -9.265625 C 2.132812 -9.410156 2.816406 -10.101562 2.703125 -11.34375 L 1.40625 -11.34375 L 1.40625 -14.703125 L 4.8125 -14.703125 L 4.8125 -11.859375 C 4.8125 -10.472656 4.472656 -9.472656 3.796875 -8.859375 C 3.128906 -8.253906 2.171875 -7.945312 0.921875 -7.9375 Z M 0.65625 -9.265625 "/></g></g></g><g fill="#ffffff" fill-opacity="1"><g transform="translate(144.955616, 133.941034)"><g/></g></g><g fill="#ffffff" fill-opacity="1"><g transform="translate(152.72565, 133.941034)"><g><path d="M 0.5 -11.25 L 3.734375 -11.25 L 5.546875 -4.4375 L 7.671875 -11.296875 L 10.421875 -11.296875 L 12.5625 -4.40625 L 14.40625 -11.25 L 17.578125 -11.25 L 14.0625 0.078125 L 11.1875 0.078125 L 9.03125 -6.828125 L 6.828125 0.078125 L 3.96875 0.078125 Z M 0.5 -11.25 "/></g></g></g><g fill="#ffffff" fill-opacity="1"><g transform="translate(172.276712, 133.941034)"><g><path d="M 1.484375 -15.328125 L 4.84375 -15.328125 L 4.84375 -12.5 L 1.484375 -12.5 Z M 1.578125 -11.25 L 4.765625 -11.25 L 4.765625 0 L 1.578125 0 Z M 1.578125 -11.25 "/></g></g></g><g fill="#ffffff" fill-opacity="1"><g transform="translate(180.088746, 133.941034)"><g><path d="M 5.234375 0.1875 C 4.742188 0.1875 4.296875 0.132812 3.890625 0.03125 C 3.492188 -0.0703125 3.148438 -0.253906 2.859375 -0.515625 C 2.578125 -0.785156 2.351562 -1.132812 2.1875 -1.5625 C 2.03125 -1.988281 1.953125 -2.53125 1.953125 -3.1875 L 1.953125 -8.53125 L 0.609375 -8.53125 L 0.609375 -11.25 L 1.953125 -11.25 L 1.953125 -14.140625 L 5.140625 -14.140625 L 5.140625 -11.25 L 7.796875 -11.25 L 7.796875 -8.53125 L 5.140625 -8.53125 L 5.140625 -3.71875 C 5.140625 -2.988281 5.484375 -2.625 6.171875 -2.625 C 6.734375 -2.625 7.257812 -2.757812 7.75 -3.03125 L 7.75 -0.46875 C 7.414062 -0.269531 7.046875 -0.113281 6.640625 0 C 6.234375 0.125 5.765625 0.1875 5.234375 0.1875 Z M 5.234375 0.1875 "/></g></g></g><g fill="#ffffff" fill-opacity="1"><g transform="translate(190.273782, 133.941034)"><g><path d="M 1.421875 -15.328125 L 4.625 -15.328125 L 4.625 -9.65625 C 4.800781 -9.894531 5 -10.125 5.21875 -10.34375 C 5.4375 -10.5625 5.675781 -10.753906 5.9375 -10.921875 C 6.207031 -11.085938 6.503906 -11.21875 6.828125 -11.3125 C 7.148438 -11.414062 7.515625 -11.46875 7.921875 -11.46875 C 9.140625 -11.46875 10.078125 -11.09375 10.734375 -10.34375 C 11.398438 -9.601562 11.734375 -8.582031 11.734375 -7.28125 L 11.734375 0 L 8.546875 0 L 8.546875 -6.28125 C 8.546875 -7.03125 8.375 -7.597656 8.03125 -7.984375 C 7.695312 -8.367188 7.222656 -8.5625 6.609375 -8.5625 C 5.992188 -8.5625 5.507812 -8.367188 5.15625 -7.984375 C 4.800781 -7.597656 4.625 -7.03125 4.625 -6.28125 L 4.625 0 L 1.421875 0 Z M 1.421875 -15.328125 "/></g></g></g><g fill="#ffffff" fill-opacity="1"><g transform="translate(204.831672, 133.941034)"><g/></g></g></svg>